<svg width="42" height="41" viewBox="0 0 42 41" fill="none" xmlns="http://www.w3.org/2000/svg">
<rect x="0.5" width="41" height="41" rx="20.5" fill="#1F50FF"/>
<path d="M14.5369 22.9023L12.6903 21.0529L10.8438 22.9023" stroke="white" stroke-linecap="round" stroke-linejoin="round"/>
<path d="M27.4631 18.1327L29.3097 19.9822L31.1562 18.1327" stroke="white" stroke-linecap="round" stroke-linejoin="round"/>
<path d="M29.3096 19.9821C29.3096 17.7748 28.4342 15.658 26.8758 14.0972C25.3174 12.5364 23.2039 11.6596 21 11.6596C19.9399 11.658 18.8895 11.8621 17.9069 12.2606C16.8103 12.7001 15.8198 13.3686 15.0014 14.2217C14.1831 15.0748 13.5557 16.0929 13.1612 17.2079" stroke="white" stroke-linecap="round" stroke-linejoin="round"/>
<path d="M12.6903 21.0529C12.6921 22.985 13.365 24.8564 14.5937 26.346C15.8225 27.8356 17.5304 28.8506 19.4246 29.2169C21.3189 29.5832 23.2813 29.278 24.9753 28.3536C26.6695 27.4293 27.9896 25.9434 28.7095 24.1507" stroke="white" stroke-linecap="round" stroke-linejoin="round"/>
<path d="M18.4796 22.5606C18.5332 23.1798 18.8273 23.7533 19.2987 24.1576C19.7699 24.562 20.3808 24.765 21 24.7231C23.0331 24.7231 23.5203 23.5535 23.5203 22.5606C23.5203 21.5678 22.6802 20.516 21 20.516C19.3198 20.516 18.4796 19.8512 18.4796 18.4965C18.4953 18.1849 18.5737 17.8796 18.7102 17.5991C18.8468 17.3186 19.0384 17.0686 19.274 16.8643C19.5094 16.6599 19.7837 16.5053 20.0803 16.4099C20.3769 16.3144 20.6898 16.28 21 16.3088C21.6196 16.2821 22.2259 16.4938 22.6946 16.9006C23.1632 17.3075 23.4588 17.8785 23.5203 18.4965" stroke="white" stroke-linecap="round" stroke-linejoin="round"/>
<path d="M21 25.983V24.8884M21 15.0444V16.3056" stroke="white" stroke-linecap="round" stroke-linejoin="round"/>
</svg>
