<svg width="21" height="21" viewBox="0 0 21 21" fill="none" xmlns="http://www.w3.org/2000/svg">
<path d="M8.25834 6.09148C8.18108 6.16858 8.11979 6.26015 8.07798 6.36096C8.03616 6.46177 8.01463 6.56984 8.01463 6.67898C8.01463 6.78812 8.03616 6.89619 8.07798 6.997C8.11979 7.09781 8.18108 7.18939 8.25834 7.26648L11.4917 10.4998L8.25834 13.7331C8.10252 13.889 8.01499 14.1003 8.01499 14.3206C8.01499 14.541 8.10252 14.7523 8.25834 14.9082C8.41415 15.064 8.62548 15.1515 8.84584 15.1515C9.06619 15.1515 9.27752 15.064 9.43334 14.9082L13.2583 11.0831C13.3356 11.0061 13.3969 10.9145 13.4387 10.8137C13.4805 10.7129 13.502 10.6048 13.502 10.4956C13.502 10.3865 13.4805 10.2784 13.4387 10.1776C13.3969 10.0768 13.3356 9.98524 13.2583 9.90815L9.43334 6.08315C9.11667 5.76648 8.58334 5.76648 8.25834 6.09148Z" fill="#1F50FF"/>
</svg>
