<svg width="26" height="28" viewBox="0 0 26 28" fill="none" xmlns="http://www.w3.org/2000/svg">
<path d="M10.8333 17.5002L16.4558 14.0002L10.8333 10.5002V17.5002ZM23.3567 8.36516C23.4975 8.9135 23.595 9.6485 23.66 10.5818C23.7358 11.5152 23.7683 12.3202 23.7683 13.0202L23.8333 14.0002C23.8333 16.5552 23.66 18.4335 23.3567 19.6352C23.0858 20.6852 22.4575 21.3618 21.4825 21.6535C20.9733 21.8052 20.0417 21.9102 18.6117 21.9802C17.2033 22.0618 15.9142 22.0968 14.7225 22.0968L13 22.1668C8.46082 22.1668 5.63332 21.9802 4.51749 21.6535C3.54249 21.3618 2.91416 20.6852 2.64332 19.6352C2.50249 19.0868 2.40499 18.3518 2.33999 17.4185C2.26416 16.4852 2.23166 15.6802 2.23166 14.9802L2.16666 14.0002C2.16666 11.4452 2.33999 9.56683 2.64332 8.36516C2.91416 7.31516 3.54249 6.6385 4.51749 6.34683C5.02666 6.19516 5.95832 6.09016 7.38832 6.02016C8.79666 5.9385 10.0858 5.9035 11.2775 5.9035L13 5.8335C17.5392 5.8335 20.3667 6.02016 21.4825 6.34683C22.4575 6.6385 23.0858 7.31516 23.3567 8.36516Z" fill="white"/>
</svg>
