<svg width="25" height="26" viewBox="0 0 25 26" fill="none" xmlns="http://www.w3.org/2000/svg">
<path fill-rule="evenodd" clip-rule="evenodd" d="M12.5 22.6675C13.7311 22.6675 14.9502 22.425 16.0877 21.9539C17.2251 21.4827 18.2586 20.7922 19.1291 19.9216C19.9997 19.0511 20.6902 18.0176 21.1614 16.8801C21.6325 15.7427 21.875 14.5236 21.875 13.2925C21.875 12.0613 21.6325 10.8423 21.1614 9.70482C20.6902 8.5674 19.9997 7.5339 19.1291 6.66335C18.2586 5.7928 17.2251 5.10225 16.0877 4.63111C14.9502 4.15997 13.7311 3.91748 12.5 3.91748C10.0136 3.91748 7.62903 4.9052 5.87087 6.66335C4.11272 8.42151 3.125 10.8061 3.125 13.2925C3.125 15.7789 4.11272 18.1635 5.87087 19.9216C7.62903 21.6798 10.0136 22.6675 12.5 22.6675ZM12.2583 17.0841L17.4667 10.8341L15.8667 9.50081L11.3875 14.8748L9.06979 12.556L7.59688 14.0289L10.7219 17.1539L11.5281 17.9602L12.2583 17.0841Z" fill="#1F50FF"/>
</svg>
