<svg width="41" height="40" viewBox="0 0 41 40" fill="none" xmlns="http://www.w3.org/2000/svg">
<rect x="0.5" width="40" height="40" rx="20" fill="#FF5271"/>
<path d="M22.6863 10.7529V14.3487C22.6863 14.8364 22.8807 15.3042 23.2269 15.649C23.5731 15.9939 24.0426 16.1877 24.5322 16.1877H28.6572" stroke="white" stroke-width="1.5" stroke-linecap="round" stroke-linejoin="round"/>
<path d="M28.75 16.5678V25.136C28.73 25.696 28.5995 26.2466 28.3658 26.7563C28.132 27.266 27.7998 27.7248 27.3879 28.1065C26.9761 28.4881 26.4927 28.7852 25.9656 28.9806C25.4384 29.176 24.8777 29.266 24.3156 29.2454H16.7256C16.1601 29.2716 15.595 29.1857 15.0631 28.9928C14.5311 28.7999 14.0429 28.5037 13.6266 28.1215C13.2104 27.7393 12.8744 27.2786 12.6381 26.7662C12.4018 26.2537 12.2699 25.6996 12.25 25.136V14.8623C12.27 14.3023 12.4005 13.7517 12.6342 13.242C12.868 12.7323 13.2002 12.2735 13.6121 11.8918C14.0239 11.5102 14.5073 11.2131 15.0344 11.0177C15.5616 10.8223 16.1223 10.7323 16.6844 10.7529H22.3975C23.2704 10.75 24.1128 11.0725 24.7591 11.657L27.7188 14.3795C28.0351 14.6518 28.2904 14.9873 28.4681 15.3643C28.6457 15.7413 28.7418 16.1514 28.75 16.5678Z" stroke="white" stroke-width="1.5" stroke-linecap="round" stroke-linejoin="round"/>
<path d="M16.1471 15.6471H19.4118" stroke="white" stroke-width="1.5" stroke-linecap="round" stroke-linejoin="round"/>
<path d="M16.1471 20H24.853" stroke="white" stroke-width="1.5" stroke-linecap="round" stroke-linejoin="round"/>
<path d="M16.1471 24.3529H24.853" stroke="white" stroke-width="1.5" stroke-linecap="round" stroke-linejoin="round"/>
</svg>
