<svg width="127" height="30" viewBox="0 0 127 30" fill="none" xmlns="http://www.w3.org/2000/svg">
<g clip-path="url(#clip0_7_16)">
<path fill-rule="evenodd" clip-rule="evenodd" d="M7.5111 1.875V30H0V1.875H7.5111Z" fill="#1E1E1E"/>
<path fill-rule="evenodd" clip-rule="evenodd" d="M11.2667 1.875H27.2278C32.4131 1.875 36.6167 6.07233 36.6167 11.25C36.6167 16.4277 32.4131 20.625 27.2278 20.625H18.7778V30H11.2667V1.875ZM18.7778 13.125H27.2278C28.2649 13.125 29.1056 12.2855 29.1056 11.25C29.1056 10.2145 28.2649 9.375 27.2278 9.375H18.7778V13.125Z" fill="#1E1E1E"/>
<path fill-rule="evenodd" clip-rule="evenodd" d="M64.7833 1.875V16.4062C64.7833 19.7717 67.5156 22.5 70.8861 22.5C74.2566 22.5 76.989 19.7717 76.989 16.4062V1.875H84.5002V16.4062C84.5002 23.9139 78.405 30 70.8861 30C63.3673 30 57.2722 23.9139 57.2722 16.4062V1.875H64.7833Z" fill="#1E1E1E"/>
<path fill-rule="evenodd" clip-rule="evenodd" d="M39.4333 15C39.4333 7.75125 45.3183 1.875 52.5778 1.875H54.4555V9.375H52.5778C49.4665 9.375 46.9444 11.8934 46.9444 15V15.9375C46.9444 23.704 40.6391 30 32.8611 30H31.9222V22.5H32.8611C36.4909 22.5 39.4333 19.5619 39.4333 15.9375V15Z" fill="#1E1E1E"/>
<path d="M126.75 2.8125C126.75 4.3658 125.489 5.625 123.933 5.625C122.378 5.625 121.117 4.3658 121.117 2.8125C121.117 1.2592 122.378 0 123.933 0C125.489 0 126.75 1.2592 126.75 2.8125Z" fill="#1E1E1E"/>
<path d="M92.565 30L96.1493 15.0136L98.814 24.0295C100.403 29.4069 108.031 29.4069 109.62 24.0295L112.284 15.0136L115.868 30H123.59L117.955 6.43465C116.615 0.830615 108.706 0.623121 107.072 6.14922L104.217 15.8125L101.361 6.14923C99.7283 0.623154 91.8188 0.830585 90.4785 6.43465L84.843 30H92.565Z" fill="#1E1E1E"/>
</g>
<defs>
<clipPath id="clip0_7_16">
<rect width="126.75" height="30" fill="white"/>
</clipPath>
</defs>
</svg>
