<svg width="55" height="30" viewBox="0 0 55 30" fill="none" xmlns="http://www.w3.org/2000/svg">
<g clip-path="url(#clip0_7_23)">
<path d="M54.7458 10.6697C54.7514 10.6279 54.7514 10.5858 54.7458 10.5441C54.7511 10.5101 54.7511 10.4755 54.7458 10.4414L54.3457 7.50877C54.2881 7.15792 54.1337 6.82999 53.9001 6.56166L53.8315 6.48178L53.7059 6.35625L46.7805 0.399675L46.9748 0.593678C46.8158 0.403795 46.6163 0.251914 46.3909 0.149222C46.1654 0.0465303 45.9197 -0.00436252 45.672 0.000298064H43.5692C43.2273 -0.0064666 42.8932 0.102086 42.6207 0.308402C42.3346 0.103328 41.9901 -0.00466859 41.6379 0.000298064H39.5351C39.2593 -0.00416973 38.9873 0.0641735 38.7465 0.198428C38.5057 0.332683 38.3047 0.528082 38.1638 0.764835C37.9466 1.10299 37.865 1.51041 37.9352 1.90595L38.1981 3.75453C38.024 3.65597 37.8269 3.60482 37.6267 3.6062H27.4444C27.079 3.60849 26.7221 3.71541 26.4158 3.91429C26.1196 4.0994 25.8819 4.36447 25.7302 4.67882L24.9416 4.00558C24.6313 3.71884 24.2216 3.56343 23.7989 3.57196H7.82256C7.45594 3.57863 7.09746 3.6809 6.78265 3.86865C6.35195 4.12036 6.03631 4.52965 5.90267 5.00975L0.82866 21.9552C0.733854 22.2344 0.724528 22.5355 0.801876 22.8201C0.879223 23.1046 1.03974 23.3597 1.26293 23.5528C1.32108 23.602 1.38214 23.6477 1.44578 23.6897C1.44578 23.6897 1.34291 23.6212 1.28577 23.5642L8.21114 29.5322C8.5041 29.8015 8.88713 29.952 9.2853 29.9543H25.3874C25.7551 29.9448 26.1138 29.8385 26.4273 29.6462C26.6046 29.5495 26.7632 29.422 26.8958 29.2696L26.953 29.1898L27.0444 29.0757L27.1129 28.9501L27.8672 29.6006C28.156 29.8592 28.5307 30.0015 28.9186 30H45.0548C45.4222 29.9878 45.7802 29.8817 46.0948 29.6919C46.2681 29.5892 46.4258 29.4624 46.5634 29.3153L46.6204 29.2354L46.7119 29.1214C46.7605 29.0491 46.8026 28.9728 46.8376 28.8931C46.8749 28.8239 46.9055 28.7513 46.929 28.6763L51.5573 13.2029V13.066C51.563 13.0129 51.563 12.9593 51.5573 12.9062V12.8035C51.5629 12.7695 51.5629 12.7349 51.5573 12.7008C51.5625 12.6287 51.5625 12.5562 51.5573 12.484H53.043C53.1722 12.4958 53.3023 12.4958 53.4315 12.484H53.5344C53.618 12.4591 53.6986 12.4246 53.7744 12.3813H53.8887L54.0944 12.2215L54.1858 12.1531L54.3457 11.9476V11.8792L54.4601 11.6852C54.4537 11.6475 54.4537 11.6089 54.4601 11.5711C54.454 11.5526 54.454 11.5326 54.4601 11.5141C54.4844 11.4472 54.5035 11.3785 54.5172 11.3087C54.5119 11.2861 54.5119 11.2627 54.5172 11.2402C54.5117 11.2062 54.5117 11.1715 54.5172 11.1375C54.5172 11.1375 54.7458 10.6925 54.7458 10.6697Z" fill="#1E1E1E"/>
<path d="M24.2674 4.87291C24.3281 4.92769 24.3704 4.99972 24.3888 5.07929C24.4073 5.15887 24.4007 5.24216 24.3703 5.31793L19.3077 22.252C19.244 22.4368 19.1135 22.5914 18.942 22.6856C18.8024 22.7788 18.6409 22.8339 18.4734 22.8454H2.3829C2.24548 22.8388 2.11529 22.7819 2.0172 22.6856C1.95884 22.6317 1.91788 22.5616 1.89956 22.4845C1.88124 22.4072 1.8864 22.3263 1.91435 22.252L6.98836 5.31793C7.04682 5.13072 7.17314 4.97202 7.34262 4.87291C7.4845 4.78637 7.64528 4.73547 7.81117 4.72456H23.9017C24.038 4.72587 24.1688 4.77891 24.2674 4.87291ZM15.8678 18.8401L18.8963 8.72984H10.4168L7.39975 18.8401H15.8678ZM39.6266 5.04406C39.6815 5.10777 39.7501 5.15829 39.8273 5.19187C39.9044 5.22546 39.9881 5.24125 40.0723 5.23805H42.1636C42.2432 5.23883 42.3217 5.21933 42.3917 5.1814C42.4617 5.14346 42.5208 5.08834 42.5636 5.02124C42.6007 4.96883 42.6269 4.9095 42.6407 4.84677C42.6544 4.78405 42.6554 4.71921 42.6435 4.6561L42.2321 1.64357C42.193 1.50415 42.1226 1.3754 42.0265 1.267C41.9715 1.2033 41.903 1.15278 41.8258 1.11919C41.7486 1.08561 41.6648 1.06983 41.5808 1.07302H39.4895C39.4098 1.07224 39.3313 1.09174 39.2613 1.12968C39.1913 1.16761 39.1322 1.22273 39.0895 1.28983C39.0095 1.44958 38.9752 1.55228 39.0095 1.64357L39.4323 4.6561C39.454 4.80278 39.5221 4.9387 39.6266 5.04406ZM46.2662 1.62075C46.227 1.48132 46.1567 1.35257 46.0605 1.24418C46.0079 1.18071 45.9413 1.1302 45.866 1.09656C45.7907 1.06292 45.7087 1.04705 45.6263 1.05019H43.5235C43.4452 1.04797 43.3677 1.06694 43.2993 1.10511C43.2309 1.14328 43.1741 1.19923 43.135 1.267C43.0589 1.36824 43.026 1.4954 43.0436 1.62075L43.4663 4.63327C43.4929 4.77841 43.5602 4.91299 43.6607 5.02124C43.7165 5.0837 43.7853 5.13338 43.8623 5.16685C43.9392 5.20034 44.0224 5.21684 44.1063 5.21522H46.2091C46.2872 5.21626 46.3642 5.19678 46.4324 5.15872C46.5006 5.12067 46.5576 5.0654 46.5977 4.99843C46.6374 4.94738 46.6652 4.88807 46.679 4.82489C46.6929 4.76171 46.6924 4.69624 46.6776 4.63327L46.2662 1.62075ZM37.7867 6.18518L37.5809 4.70174H27.4444C27.2852 4.71049 27.1313 4.76173 26.9987 4.85008C26.9145 4.89591 26.8412 4.95943 26.784 5.03626C26.7269 5.1131 26.687 5.20141 26.6673 5.29511L25.8216 8.12504C25.7879 8.19576 25.7763 8.27511 25.7885 8.35251C25.8008 8.42991 25.8362 8.50176 25.8902 8.55869C25.9865 8.64914 26.1123 8.70186 26.2445 8.70704H38.5638L35.5354 18.8173H23.2503C23.0919 18.8209 22.9376 18.8683 22.8047 18.9541C22.643 19.0567 22.525 19.2151 22.4732 19.3992L21.6161 22.2292C21.5882 22.3018 21.5808 22.3807 21.5949 22.4572C21.6091 22.5337 21.644 22.6048 21.6961 22.6627C21.7895 22.7593 21.9162 22.8164 22.0504 22.8225H38.1866C38.3535 22.8082 38.5144 22.7533 38.6552 22.6627C38.8239 22.5681 38.9505 22.4132 39.0095 22.2292L43.6492 6.75573H38.4266C38.3438 6.75736 38.2615 6.742 38.1848 6.7106C38.1082 6.67919 38.0388 6.6324 37.981 6.57314C37.8865 6.46966 37.8197 6.34409 37.7867 6.208V6.18518Z" fill="white"/>
</g>
<defs>
<clipPath id="clip0_7_23">
<rect width="54" height="30" fill="white" transform="translate(0.75)"/>
</clipPath>
</defs>
</svg>
