<svg width="79" height="30" viewBox="0 0 79 30" fill="none" xmlns="http://www.w3.org/2000/svg">
<g clip-path="url(#clip0_7_29)">
<path d="M19.2647 0C16.2186 0 13.2973 1.21005 11.1434 3.36396L4.11396 10.3934C1.96005 12.5473 0.75 15.4686 0.75 18.5147C0.75 24.8579 5.89214 30 12.2353 30C15.2814 30 18.2027 28.7899 20.3566 26.636L25.2189 21.7737C25.2189 21.7736 25.219 21.7738 25.2189 21.7737L39.386 7.6066C40.4147 6.57791 41.8099 6 43.2647 6C45.7003 6 47.7652 7.58741 48.4811 9.78407L52.9522 5.31296C50.9125 2.11834 47.336 0 43.2647 0C40.2186 0 37.2973 1.21005 35.1434 3.36396L16.114 22.3934C15.0853 23.4221 13.6901 24 12.2353 24C9.20584 24 6.75 21.5442 6.75 18.5147C6.75 17.0599 7.32791 15.6647 8.3566 14.636L15.386 7.6066C16.4147 6.57791 17.8099 6 19.2647 6C21.7004 6 23.7652 7.58748 24.4811 9.78421L28.9523 5.31307C26.9126 2.1184 23.3361 0 19.2647 0Z" fill="#1E1E1E"/>
<path d="M40.114 22.3934C39.0853 23.4221 37.6901 24 36.2353 24C33.8 24 31.7353 22.413 31.0192 20.2167L26.5482 24.6877C28.588 27.8819 32.1643 30 36.2353 30C39.2814 30 42.2027 28.7899 44.3566 26.636L63.386 7.6066C64.4147 6.57791 65.8099 6 67.2647 6C70.2942 6 72.75 8.45584 72.75 11.4853C72.75 12.9401 72.1721 14.3353 71.1434 15.364L64.114 22.3934C63.0853 23.4221 61.6901 24 60.2353 24C57.7998 24 55.735 22.4127 55.019 20.2162L50.548 24.6873C52.5877 27.8818 56.1641 30 60.2353 30C63.2814 30 66.2027 28.7899 68.3566 26.636L75.386 19.6066C77.5399 17.4527 78.75 14.5314 78.75 11.4853C78.75 5.14214 73.6079 0 67.2647 0C64.2186 0 61.2973 1.21005 59.1434 3.36396L40.114 22.3934Z" fill="#1E1E1E"/>
</g>
<defs>
<clipPath id="clip0_7_29">
<rect width="78" height="30" fill="white" transform="translate(0.75)"/>
</clipPath>
</defs>
</svg>
